/* XPM */
static char * mrxvt_root_xpm[] = {
"48 48 183 2",
"  	c None",
". 	c #31943D",
"+ 	c #2F8F3C",
"@ 	c #55C663",
"# 	c #6FCF7B",
"$ 	c #4DC35C",
"% 	c #31963E",
"& 	c #30913C",
"* 	c #B9E7BF",
"= 	c #BEE9C3",
"- 	c #C1EAC6",
"; 	c #C4EBC9",
"> 	c #C7ECCC",
", 	c #CDEED1",
"' 	c #CFEFD3",
") 	c #D3F0D7",
"! 	c #D6F1D9",
"~ 	c #D9F2DC",
"{ 	c #DCF3DF",
"] 	c #E2F5E4",
"^ 	c #E4F6E6",
"/ 	c #E8F7EA",
"( 	c #EBF8ED",
"_ 	c #EEF9EF",
": 	c #F1FAF2",
"< 	c #F7FCF8",
"[ 	c #F8FDF9",
"} 	c #FCFEFC",
"| 	c #F2FBF4",
"1 	c #EFFAF1",
"2 	c #E9F7EB",
"3 	c #E7F7E9",
"4 	c #E0F4E3",
"5 	c #D4F0D8",
"6 	c #CCEED0",
"7 	c #BFEAC5",
"8 	c #B8E7BE",
"9 	c #B7E7BD",
"0 	c #70CF7C",
"a 	c #71CF7D",
"b 	c #76D181",
"c 	c #B5E6BB",
"d 	c #65CC72",
"e 	c #0B220E",
"f 	c #0C250F",
"g 	c #2F8D3A",
"h 	c #5CC86A",
"i 	c #091C0B",
"j 	c #000201",
"k 	c #020703",
"l 	c #020803",
"m 	c #030A04",
"n 	c #030B05",
"o 	c #040E06",
"p 	c #051006",
"q 	c #051107",
"r 	c #061308",
"s 	c #184B1F",
"t 	c #287932",
"u 	c #267330",
"v 	c #256F2E",
"w 	c #22672B",
"x 	c #1F5F28",
"y 	c #1D5824",
"z 	c #08190A",
"A 	c #061408",
"B 	c #07170A",
"C 	c #1F5E27",
"D 	c #1C5724",
"E 	c #194C1F",
"F 	c #17471E",
"G 	c #143D19",
"H 	c #103315",
"I 	c #0E2B12",
"J 	c #0A200D",
"K 	c #B2E5B8",
"L 	c #2D8939",
"M 	c #2F8E3B",
"N 	c #5BC869",
"O 	c #091D0C",
"P 	c #0D2810",
"Q 	c #0B230F",
"R 	c #0C2710",
"S 	c #0E2C12",
"T 	c #0F2E13",
"U 	c #0F2F14",
"V 	c #103114",
"W 	c #297C33",
"X 	c #339A40",
"Y 	c #2E8B3A",
"Z 	c #2D8838",
"` 	c #2B8035",
" .	c #216329",
"..	c #113415",
"+.	c #1E5C26",
"@.	c #2D8738",
"#.	c #2A7F35",
"$.	c #277631",
"%.	c #236B2D",
"&.	c #216429",
"*.	c #1E5B26",
"=.	c #1B5222",
"-.	c #B0E4B7",
";.	c #48C157",
">.	c #18491E",
",.	c #081A0B",
"'.	c #0A1F0D",
").	c #2C8537",
"!.	c #297E34",
"~.	c #123717",
"{.	c #21662A",
"].	c #1B5323",
"^.	c #15401A",
"/.	c #113516",
"(.	c #AFE4B6",
"_.	c #60CA6D",
":.	c #A3E0AB",
"<.	c #277530",
"[.	c #123817",
"}.	c #133A18",
"|.	c #359F42",
"1.	c #339C41",
"2.	c #32973F",
"3.	c #143F1A",
"4.	c #2B8236",
"5.	c #297B33",
"6.	c #25712F",
"7.	c #236A2C",
"8.	c #194E20",
"9.	c #15411B",
"0.	c #16431C",
"a.	c #6CCE78",
"b.	c #E5F6E7",
"c.	c #0D2911",
"d.	c #133B19",
"e.	c #1D5925",
"f.	c #25702E",
"g.	c #16441C",
"h.	c #2B8337",
"i.	c #6ACD76",
"j.	c #17461D",
"k.	c #36A344",
"l.	c #41BF51",
"m.	c #1A4F21",
"n.	c #79D284",
"o.	c #B4E6BA",
"p.	c #40BF50",
"q.	c #23692B",
"r.	c #7DD388",
"s.	c #ACE3B3",
"t.	c #277732",
"u.	c #80D48B",
"v.	c #246D2D",
"w.	c #1C5523",
"x.	c #85D68F",
"y.	c #ABE2B2",
"z.	c #37A746",
"A.	c #349D41",
"B.	c #88D792",
"C.	c #6DCE79",
"D.	c #73D07F",
"E.	c #84D68E",
"F.	c #206128",
"G.	c #1A5021",
"H.	c #8ED997",
"I.	c #33993F",
"J.	c #92DB9C",
"K.	c #95DC9E",
"L.	c #31933D",
"M.	c #9ADDA2",
"N.	c #A9E2B0",
"O.	c #94DB9D",
"P.	c #A0DFA8",
"Q.	c #A4E0AC",
"R.	c #A8E1AF",
"S.	c #BCE8C2",
"T.	c #A1DFA9",
"U.	c #D1EFD5",
"V.	c #D8F1DB",
"W.	c #DBF2DE",
"X.	c #9CDEA4",
"Y.	c #000000",
"Z.	c #010502",
"                                                                                                ",
"                                                                                                ",
"                                                                                                ",
"                                                                                                ",
"                                                                                                ",
"                                                                                                ",
"        . + + + + + + + + + + + + + + + + + + + + + + + + + + + + + + + + + + + + + .           ",
"      . @ # # # # # # # # # # # # # # # # # # # # # # # # # # # # # # # # # # # # # $ %         ",
"      & * * = - ; > , ' ) ! ~ { ] ^ / ( _ : < [ } [ | 1 _ 2 3 ^ 4 { ~ 5 ) ' 6 > ; 7 8 +         ",
"      + 9 0 0 0 0 0 0 0 0 0 0 0 0 a a a a a a a a a a a a a a a 0 0 0 0 0 0 0 0 0 b 9 +         ",
"      + c d e e e e e e e e e e e e e e e e e e e e e e e e e e e e e e e e e e f 0 9 g         ",
"      + c h i j j k l l m n o p q r s t u v w x y z A A r B w w C D E F G H I J i 0 K L         ",
"      M K N O O P Q Q R P S S T U V W X % Y Z `  .....H H +.& @.#.$.%.&.*.=.F G i # -.L         ",
"      Y K N i o ;.>.J B B z ,.i O '.#.L ).!.t u ~.J J J Q ` ` $.v {.+.].>.^./.I i # (.Z         ",
"      L K _.O T a 3 :.<.^././.[.}.G |.1.2.& L ` ^.^.3.3.w X & L 4.5.6.7.x D 8.9.i 0 (.).        ",
"      Z K d i A J 0.a.b.a.c.R P I d.& L ).4.5.e.U U U V ).L ` t f.7.x D E g.[.T i b (.h.        ",
"      @.K i.O H j.k.7 4 l.g.9.g.j.&.|.X % & g e.s s >.f.|.X & L h.W <.%.x e.m.g.O n.(.4.        ",
"      ).-.0 i R o.5 p.^.H U V H /. .Y Z ).` u }.}.}.3.Z Y ).#.$.f.q.x y 8.g.d.V O r.s.`         ",
"      h.-.a '.d.4.].s j.F s E 8.m.).X 2.. + 6.y D D $.|.X . M @.` t.6.7.x e.m.j.O u.s.#.        ",
"      ` (.n.O P T U V ..~.}.^.^.0.#.@.).` #.m.>.>.>.Z g @.` 5.u v.w +.w.E g.d.V O x.y.5.        ",
"      #.-.r.'.9.j.>.s 8.w.v.f.6.<.z.% . & ). . . .W A.X % M Z ).#.<.f.q.x D E g.O B.y.5.        ",
"      W -.u.O V H ~.}.^.D i.C.# D.E.h.4.#.&.D D y Z L Z 4.!.$.f.7.F.*.G.>.^.~.V O H.y.5.        ",
"      5.(.x.'.>.E m.w.y +.&.7.%.5.2.& & M v v v 4.1.I.. M L ).#.t.6.7.&.+.].E F O J.y.t         ",
"      5.(.B.O ~.}.^.0.F >.8.G.].7.!.!.!.u F.F. .).Z ).h.!.$.6.%.&.+.w.s g.^.}.~.O K.y.t.        ",
"      t (.H.'.m.w.y *.C  .{.7.v.h.Y Y Y !.t.5.Z I.I.L.M L ).` t u v.&.C *.D w.8.O M.N.<.        ",
"      <.(.O.O G 9.j.>.8.=.D e.C u t.t.t.%.v f.).@.h.#.W t.6.v. .+.D G.E >.g.9.G O P.N.u         ",
"      <.(.M.'.w.e.C x &.7.v f.u ).@.@.).h.).g 2.. L.g L @.4.5.u f.v.7.&.x +.y ].O Q.N.6.        ",
"      u (.P.O 9.j.>.m.].e.+.F.{.v 6.u u t.t ).).h.#.5.$.6.v q. .x *.y ].m.>.j.9.O N.R.f.        ",
"      6.(.Q.'.y +.C &.7.v 6.<.t !.h.@.L g & . . & M g Z @.h.!.t <.6.v 7.&.C +.w.O s.R.v         ",
"      f.(.N.O g.>.E =.y *.x &.7.v 6.t.5.` h.@.Z @.h.` 5.t.6.v 7. .x *.y G.E >.9.O K Q.v.        ",
"      v.(.s.'.e.C F.{.%.f.u t.!.h.@.L M . 2.1.A.1.2.. g L @.h.W t.u v %.{.x C D O 8 Q.%.        ",
"      %.(.K O g.>.8.].y +.F.&.7.f.u t.#.4.@.Y M Y @.4.W t.u v 7.&.F.*.y ].E >.0.O S.Q.w         ",
"      7.(.* '.y C x &.%.v u $.W ` ).@.g & % 2.2.2.. + g @.).` 5.$.u v 7.&.x C w.O - Q.{.        ",
"      w (.7 O 0.F s m.D e.C  .q.%.f.u t.5.#.` 4.` #.5.t.u f.%.q. .C e.w.m.s F 9.O > Q.{.        ",
"      {.(.; '.D *.C  .{.%.v u $.5.#.h.@.@.L Y Y Y L @.).h.#.5.$.u v %.{. .C e.w.O , :.&.        ",
"      &.(.6 O ^.0.F E G.w.e.+.F. .q.%.v 6.6.u u u 6.6.v %.q. .F.+.e.].m.s F 0.^.O ) T.x         ",
"       .s.U.O O O O O O O O O O O O O O O O O O O O O O O O O O O O O O O O O O O ! T.x         ",
"      x (.2 ! V.V.~ ~ ~ ~ ~ ~ ~ ~ ~ ~ ~ W.W.W.W.W.W.W.~ ~ ~ ~ ~ ~ ~ ~ ~ ~ ~ V.V.~ { P.C         ",
"      x X.S.S.S.S.S.S.S.S.S.S.S.S.S.S.S.S.S.S.S.S.S.S.S.S.S.S.S.S.S.S.S.S.S.S.S.S.* J.*.        ",
"      /.&. . . . . . . . . . . . . . . . . . . . . . . . . . . . . . . . . . . . . . .f Y.      ",
"      Y.Y.Z.Z.Z.Z.Z.Z.Z.Z.Z.Z.Z.Z.Z.Z.Z.Z.Z.Z.Z.Z.Z.Z.Z.Z.Z.Z.Z.Z.Z.Z.Z.Z.Z.Z.Z.Z.Z.Y.Y.Y.      ",
"          Y.Y.Y.Y.Y.Y.Y.Y.Y.Y.Y.Y.Y.Y.Y.Y.Y.Y.Y.Y.Y.Y.Y.Y.Y.Y.Y.Y.Y.Y.Y.Y.Y.Y.Y.Y.Y.Y.          ",
"                                                                                                ",
"                                                                                                ",
"                                                                                                ",
"                                                                                                ",
"                                                                                                ",
"                                                                                                "};
